Hanif_Medium_7_5_grf.mot
version=1
nRows=52
nColumns=19
inDegrees=yes
endheader
time	right_ground_force_vx	right_ground_force_vy	right_ground_force_vz	right_ground_force_px	right_ground_force_py	right_ground_force_pz	right_ground_torque_x	right_ground_torque_y	right_ground_torque_z	left_ground_force_vx	left_ground_force_vy	left_ground_force_vz	left_ground_force_px	left_ground_force_py	left_ground_force_pz	left_ground_torque_x	left_ground_torque_y	left_ground_torque_z
0.300000	15.062700	230.446000	51.549100	0.144663	0.000000	-1.451140	-12.485500	6.060840	-12.219500	-16.581200	343.694000	-58.773600	0.254016	0.000000	-0.980015	26.655500	0.600534	19.223600
0.305000	15.162100	231.022000	51.242100	0.145077	0.000000	-1.450060	-12.766600	6.038800	-12.161300	-16.312300	347.960000	-59.257700	0.253522	0.000000	-0.978705	26.520100	0.616139	19.268900
0.310000	14.547300	233.625000	51.211900	0.146762	0.000000	-1.451030	-12.694600	5.896540	-11.918200	-16.270100	346.570000	-60.417300	0.253765	0.000000	-0.980451	27.023500	0.644725	19.307000
0.315000	14.644300	233.893000	50.948400	0.147981	0.000000	-1.449830	-12.983600	5.920730	-11.633600	-16.523800	348.907000	-60.447600	0.254021	0.000000	-0.979362	26.828800	0.609045	19.527300
0.320000	14.451500	236.493000	50.101400	0.149644	0.000000	-1.450550	-12.957300	5.865730	-11.370400	-16.775300	350.360000	-60.520500	0.253090	0.000000	-0.979051	26.831600	0.594363	19.273400
0.325000	14.367200	238.784000	50.437500	0.149606	0.000000	-1.451520	-12.856300	5.856440	-11.498500	-16.899900	351.777000	-60.979800	0.253136	0.000000	-0.978750	26.834300	0.622703	19.367600
0.330000	14.375900	240.391000	51.086000	0.151024	0.000000	-1.449730	-13.376900	5.835850	-11.236800	-16.861100	351.738000	-61.296000	0.252937	0.000000	-0.979007	26.917700	0.707261	19.285400
0.335000	13.988400	242.302000	50.960500	0.151982	0.000000	-1.450220	-13.371700	5.721580	-11.110200	-17.024100	352.141000	-61.241400	0.252305	0.000000	-0.978857	26.899700	0.616049	19.093400
0.340000	13.449700	242.581000	51.242200	0.152308	0.000000	-1.451300	-13.134700	5.616010	-11.054500	-16.772900	351.856000	-61.070200	0.252176	0.000000	-0.978795	26.855000	0.554205	19.035900
0.345000	13.210600	243.304000	51.462000	0.153094	0.000000	-1.451260	-13.184400	5.607920	-10.889800	-16.135000	351.575000	-61.432900	0.251839	0.000000	-0.977656	26.423000	0.553382	18.895600
0.350000	12.992400	243.394000	51.598400	0.154173	0.000000	-1.451060	-13.243000	5.513880	-10.637800	-15.928400	352.862000	-61.600700	0.251423	0.000000	-0.977771	26.557900	0.497536	18.819300
0.355000	12.163000	242.891000	51.669800	0.154890	0.000000	-1.450520	-13.354000	5.411410	-10.445000	-15.902000	352.335000	-61.730300	0.250777	0.000000	-0.977239	26.328800	0.508693	18.557500
0.360000	12.126200	243.925000	51.771100	0.155743	0.000000	-1.450390	-13.448700	5.295310	-10.301000	-15.344900	351.863000	-61.692800	0.250530	0.000000	-0.977802	26.485500	0.469344	18.445200
0.365000	11.276400	243.965000	52.621300	0.156280	0.000000	-1.449870	-13.591700	5.144840	-10.189100	-15.449200	351.919000	-62.015900	0.249600	0.000000	-0.976916	26.179900	0.405383	18.127000
0.370000	10.801600	244.723000	52.310100	0.157970	0.000000	-1.449870	-13.632800	5.160000	-9.782230	-14.817400	350.321000	-61.817200	0.249728	0.000000	-0.977420	26.231000	0.390304	18.088800
0.375000	9.933780	246.886000	53.011000	0.158535	0.000000	-1.451520	-13.359900	4.992410	-9.753480	-14.493400	350.234000	-61.601100	0.249116	0.000000	-0.977344	26.193800	0.331689	17.865300
0.380000	9.106200	245.424000	52.665600	0.159777	0.000000	-1.450950	-13.421400	4.995920	-9.361630	-14.527700	349.162000	-61.607400	0.248418	0.000000	-0.976620	25.861600	0.297590	17.568100
0.385000	8.713710	246.635000	53.018200	0.160227	0.000000	-1.450540	-13.599900	4.810910	-9.332500	-14.178200	347.594000	-61.379500	0.248593	0.000000	-0.976700	25.770300	0.287276	17.551000
0.390000	8.480780	246.866000	53.220400	0.161629	0.000000	-1.450450	-13.639200	4.678550	-9.005790	-14.184600	346.352000	-61.689000	0.247628	0.000000	-0.976580	25.640100	0.181351	17.172800
0.395000	7.773040	248.210000	53.274600	0.162289	0.000000	-1.449450	-13.965700	4.737780	-8.868860	-13.790700	345.943000	-61.304000	0.247639	0.000000	-0.976692	25.641500	0.217406	17.139500
0.400000	7.713470	248.755000	53.631200	0.162008	0.000000	-1.450040	-13.854100	4.604230	-8.990430	-13.533000	346.855000	-61.616400	0.247112	0.000000	-0.975866	25.418200	0.193621	16.997500
0.405000	7.137270	251.800000	53.766400	0.163174	0.000000	-1.450660	-13.871500	4.606250	-8.796260	-13.746400	344.004000	-61.040300	0.246756	0.000000	-0.976582	25.460700	0.152592	16.743100
0.410000	6.843170	250.539000	54.266300	0.163527	0.000000	-1.449730	-14.039700	4.533560	-8.668000	-13.851300	344.250000	-60.986300	0.245956	0.000000	-0.975848	25.228400	0.074846	16.482300
0.415000	6.635490	252.361000	54.647100	0.163191	0.000000	-1.449970	-14.082100	4.603300	-8.808430	-13.307000	341.574000	-61.449300	0.245669	0.000000	-0.975568	24.931200	0.084736	16.262500
0.420000	6.630380	253.619000	54.654200	0.164769	0.000000	-1.450660	-13.973000	4.645450	-8.428230	-12.940900	342.448000	-60.961200	0.245175	0.000000	-0.975813	25.074000	0.013557	16.125800
0.425000	6.594060	253.028000	54.851900	0.163864	0.000000	-1.449760	-14.172200	4.549790	-8.667230	-12.978600	341.016000	-60.352000	0.244510	0.000000	-0.975208	24.759900	0.056000	15.810000
0.430000	6.715460	251.638000	55.288900	0.164057	0.000000	-1.449940	-14.048800	4.580740	-8.557440	-13.077200	338.222000	-60.647800	0.244046	0.000000	-0.975839	24.775000	0.028131	15.542200
0.435000	6.795670	254.414000	55.252000	0.164637	0.000000	-1.449600	-14.287800	4.581720	-8.509460	-12.534800	338.866000	-60.824000	0.244384	0.000000	-0.974858	24.486900	-0.091739	15.702900
0.440000	7.066470	254.727000	55.320600	0.163900	0.000000	-1.449310	-14.379900	4.598780	-8.717670	-12.301900	338.417000	-61.132500	0.242925	0.000000	-0.974953	24.482200	-0.120131	15.182300
0.445000	7.434310	254.961000	55.343000	0.163767	0.000000	-1.450730	-14.028400	4.559390	-8.772830	-12.359000	339.626000	-60.842600	0.242671	0.000000	-0.974666	24.473400	-0.192750	15.150400
0.450000	7.560420	254.879000	55.153200	0.163571	0.000000	-1.451330	-13.868200	4.667910	-8.799080	-12.395300	337.875000	-61.162000	0.241638	0.000000	-0.973654	24.004800	-0.186959	14.722000
0.455000	7.776370	255.067000	55.537400	0.163747	0.000000	-1.449880	-14.241700	4.822150	-8.730380	-12.667900	338.648000	-61.031400	0.241474	0.000000	-0.973254	23.929800	-0.277339	14.711500
0.460000	8.301580	255.548000	55.789600	0.163530	0.000000	-1.449400	-14.390800	4.740340	-8.831700	-12.392000	337.580000	-61.286300	0.240184	0.000000	-0.973833	24.043200	-0.239242	14.215000
0.465000	8.343030	255.614000	55.835600	0.163301	0.000000	-1.450860	-14.020400	4.744870	-8.892430	-12.017000	337.672000	-61.799600	0.239954	0.000000	-0.973346	23.883400	-0.326291	14.157700
0.470000	8.391710	255.876000	56.237400	0.162936	0.000000	-1.450030	-14.248100	4.774570	-8.995640	-11.802000	337.235000	-61.820900	0.239109	0.000000	-0.971791	23.325200	-0.384338	13.851500
0.475000	8.403990	256.583000	56.056200	0.163161	0.000000	-1.451280	-13.967700	4.736330	-8.969010	-11.527000	337.554000	-61.976600	0.238098	0.000000	-0.971645	23.293400	-0.416213	13.515500
0.480000	8.654850	255.484000	56.041300	0.163137	0.000000	-1.449910	-14.259800	4.598300	-8.968860	-10.815900	336.122000	-62.010700	0.238043	0.000000	-0.971961	23.295400	-0.506100	13.453200
0.485000	8.623340	256.415000	56.121400	0.163831	0.000000	-1.451090	-14.006200	4.724890	-8.788050	-10.878800	336.978000	-61.690900	0.237381	0.000000	-0.971520	23.207400	-0.592768	13.263700
0.490000	8.709720	255.747000	56.464100	0.163215	0.000000	-1.450710	-14.066000	4.761130	-8.921350	-10.894700	335.345000	-61.704900	0.237134	0.000000	-0.971598	23.122800	-0.619165	13.125800
0.495000	9.009740	256.538000	56.637400	0.162735	0.000000	-1.450100	-14.265700	4.748960	-9.088600	-10.604400	335.891000	-61.950300	0.236513	0.000000	-0.971584	23.151300	-0.643348	12.934400
0.500000	9.479280	257.539000	56.157300	0.162872	0.000000	-1.450210	-14.286500	4.830600	-9.078670	-10.558300	337.189000	-61.535200	0.235294	0.000000	-0.970743	22.955000	-0.713477	12.557800
0.505000	9.604800	256.963000	57.021000	0.162817	0.000000	-1.450710	-14.133000	4.634590	-9.114470	-10.780100	334.185000	-62.254600	0.235001	0.000000	-0.970515	22.678900	-0.699593	12.368600
0.510000	10.060400	257.029000	57.513300	0.161993	0.000000	-1.451020	-14.052000	4.788710	-9.310150	-10.512200	334.853000	-61.702800	0.234779	0.000000	-0.970782	22.812000	-0.802773	12.320500
0.515000	9.964730	255.497000	57.249100	0.162997	0.000000	-1.450650	-14.061600	4.734650	-8.991400	-10.400100	335.793000	-61.558700	0.233858	0.000000	-0.969419	22.415300	-0.846894	12.033300
0.520000	10.152100	257.628000	57.391200	0.162767	0.000000	-1.450860	-14.126300	4.731200	-9.139130	-10.420500	334.736000	-62.258000	0.233621	0.000000	-0.969979	22.534200	-0.868576	11.934900
0.525000	10.678100	256.677000	57.496800	0.161420	0.000000	-1.450820	-14.080900	4.809250	-9.454120	-10.191300	335.628000	-61.722900	0.232601	0.000000	-0.969918	22.569500	-0.929100	11.608300
0.530000	10.673500	256.781000	57.370100	0.161240	0.000000	-1.450980	-14.046200	4.760280	-9.517410	-10.302300	336.773000	-62.161600	0.231652	0.000000	-0.968398	22.133300	-0.928422	11.318500
0.535000	10.725300	256.984000	57.750500	0.161514	0.000000	-1.451090	-14.032200	4.721260	-9.461200	-9.788400	336.159000	-62.125900	0.230017	0.000000	-0.968927	22.264800	-1.020370	10.742900
0.540000	10.588600	254.895000	57.130000	0.160883	0.000000	-1.450000	-14.197900	4.676290	-9.556340	-9.621790	335.879000	-62.505400	0.230342	0.000000	-0.968243	22.018800	-1.148220	10.874800
0.545000	10.398400	253.429000	56.971200	0.161345	0.000000	-1.450880	-13.888500	4.729300	-9.356990	-9.398860	338.030000	-62.542800	0.229339	0.000000	-0.968229	22.149200	-1.138530	10.580900
0.550000	10.685100	255.552000	56.964500	0.161699	0.000000	-1.450060	-14.214100	4.734160	-9.352210	-9.226570	335.684000	-62.959600	0.227914	0.000000	-0.967795	21.848500	-1.209170	10.038900
0.555000	11.003700	254.730000	56.501600	0.161489	0.000000	-1.450840	-13.970800	4.648330	-9.396060	-9.330240	335.452000	-63.199300	0.227264	0.000000	-0.967495	21.736900	-1.335140	9.835290
